<svg xmlns="http://www.w3.org/2000/svg" width="480" height="420" viewBox="0 0 480 420">
  <defs>
    <linearGradient id="background-noodle-1-a" x1="37.554%" x2="20.41%" y1="51.425%" y2="49.159%">
      <stop offset="0%" stop-color="#592ACB"/>
      <stop offset="100%" stop-color="#312A65"/>
    </linearGradient>
    <linearGradient id="background-noodle-1-b" x1="0%" x2="100%" y1="36.092%" y2="36.092%">
      <stop offset="0%" stop-color="#9059FF"/>
      <stop offset="100%" stop-color="#E31587"/>
    </linearGradient>
  </defs>
  <g fill="none" transform="matrix(-1 0 0 1 334 113)">
    <path fill="#312A65" d="M334,307 L67,307 C119.112636,258.629663 161.220388,194.897267 187.226377,118.874319 C211.561794,47.736239 270.543021,3.04387234 334,0 L334,307 Z"/>
    <path fill="url(#background-noodle-1-a)" d="M0,307 C17.5018261,297.066328 34.5740674,285.542356 51.0720591,272.398174 C121.246081,216.489776 216.932316,232.61482 271,307 L0,307 Z"/>
    <path fill="url(#background-noodle-1-b)" d="M334,307 L114,307 C145.79039,282.134461 175.545243,252.742423 202.532663,218.864661 C237.964434,174.385973 285.119738,148.906295 334,143 L334,307 Z"/>
  </g>
</svg>
